#!OML:ASF X:\für Bonn\!DataBase\2005_08_12_Daniel\c3d\Daniel.ASF
:FULLY-SPECIFIED
:DEGREES
244
root 0.899563 16.058 -18.0387 204.604 150.386 -166.501
lowerback 86.4961 -7.01664 10.6367
upperback 6.98701 3.06749 -3.60025
thorax -10.9181 2.2412 -9.70775
lowerneck 0.365917 -9.65985 -1.93211
upperneck 4.25324 -12.8835 5.53808
head 1.80826 -6.31073 1.83504
rclavicle -4.77083e-014 5.80451e-014
rhumerus 54.6483 -23.1146 -85.1689
rradius 10.0296
rwrist 50.3429
rhand -29.1921 11.2335
rfingers 7.12502
rthumb -2.53725 -18.7311
lclavicle -4.77083e-014 5.80451e-014
lhumerus -26.0859 -17.5558 95.7918
lradius 62.4665
lwrist 13.9589
lhand -10.455 -10.193
lfingers 7.12502
lthumb 15.5455 19.2022
rfemur -58.9667 -11.6431 5.34319
rtibia 71.5524
rfoot -29.9764 -13.4764
rtoes -17.593
lfemur -62.3165 -8.67157 -25.8332
ltibia 59.4194
lfoot -13.767 -23.5088
ltoes -7.92778
245
root 0.899892 16.0871 -18.0355 204.394 150.511 -166.779
lowerback 86.0572 -6.87842 10.5312
upperback 7.11716 3.02373 -3.60896
thorax -10.8518 2.22476 -9.66942
lowerneck 0.643946 -9.59625 -2.02288
upperneck 4.0511 -12.797 5.65837
head 1.70716 -6.27687 1.90919
rclavicle -6.67916e-014 -1.51076e-014
rhumerus 52.9071 -21.5591 -82.652
rradius 10.115
rwrist 48.5406
rhand -29.1267 11.7972
rfingers 7.12502
rthumb -2.47405 -18.1682
lclavicle -6.67916e-014 -1.51076e-014
lhumerus -25.9843 -17.3589 95.6244
lradius 62.2939
lwrist 14.082
lhand -10.5 -10.0567
lfingers 7.12502
lthumb 15.5021 19.3419
rfemur -58.6361 -11.3784 5.5587
rtibia 71.0564
rfoot -29.8616 -13.5105
rtoes -17.5438
lfemur -62.0379 -8.71033 -25.5088
ltibia 59.1239
lfoot -13.7995 -23.1932
ltoes -8.18365
246
root 0.899211 16.1171 -18.0329 204.155 150.631 -167.064
lowerback 85.5938 -6.74631 10.4392
upperback 7.25285 2.98307 -3.6209
thorax -10.7797 2.21014 -9.64086
lowerneck 0.93926 -9.53422 -2.09448
upperneck 3.84668 -12.7128 5.79654
head 1.6026 -6.24395 1.98681
rclavicle -2.54444e-014 -6.99722e-014
rhumerus 51.2245 -19.8856 -80.1829
rradius 10.1539
rwrist 46.7839
rhand -29.2168 12.2974
rfingers 7.12502
rthumb -2.56113 -17.6669
lclavicle -2.54444e-014 -6.99722e-014
lhumerus -25.8752 -17.1581 95.4552
lradius 62.0699
lwrist 14.2064
lhand -10.5359 -9.95534
lfingers 7.12502
lthumb 15.4675 19.4459
rfemur -58.2626 -11.1079 5.77244
rtibia 70.5223
rfoot -29.7248 -13.5508
rtoes -17.4144
lfemur -61.7254 -8.74233 -25.1794
ltibia 58.8036
lfoot -13.8246 -22.9081
ltoes -8.40272
247
root 0.899123 16.1462 -18.0301 203.891 150.767 -167.33
lowerback 85.1259 -6.61543 10.3241
upperback 7.39846 2.92375 -3.63666
thorax -10.7001 2.19019 -9.60036
lowerneck 1.13453 -9.47767 -2.1366
upperneck 3.70707 -12.637 5.87706
head 1.52995 -6.21277 2.03451
rclavicle -6.99722e-014 2.46493e-014
rhumerus 49.6484 -18.1682 -77.959
rradius 10.2155
rwrist 45.2028
rhand -29.2919 12.7241
rfingers 7.12502
rthumb -2.63361 -17.2394
lclavicle -6.99722e-014 2.46493e-014
lhumerus -25.7335 -16.9411 95.2743
lradius 61.7982
lwrist 14.2617
lhand -10.626 -9.85824
lfingers 7.12502
lthumb 15.3808 19.5496
rfemur -57.8473 -10.8383 5.96152
rtibia 69.9827
rfoot -29.5971 -13.5514
rtoes -17.3017
lfemur -61.3632 -8.804 -24.8535
ltibia 58.4707
lfoot -13.8022 -22.5701
ltoes -8.50477
248
root 0.899289 16.1875 -18.0295 203.587 150.947 -167.627
lowerback 84.66 -6.45058 10.1957
upperback 7.5395 2.88541 -3.65402
thorax -10.6238 2.17697 -9.56586
lowerneck 1.2126 -9.42877 -2.14622
upperneck 3.65942 -12.5737 5.92567
head 1.5028 -6.18397 2.0582
rclavicle -7.31528e-014 2.06736e-014
rhumerus 48.1801 -16.4969 -76.0553
rradius 10.308
rwrist 43.7881
rhand -29.3277 13.098
rfingers 7.12502
rthumb -2.66816 -16.8651
lclavicle -7.31528e-014 2.06736e-014
lhumerus -25.5839 -16.6781 95.1038
lradius 61.4559
lwrist 14.2822
lhand -10.6833 -9.83482
lfingers 7.12502
lthumb 15.3255 19.5773
rfemur -57.354 -10.504 6.15391
rtibia 69.3584
rfoot -29.4407 -13.5927
rtoes -17.1734
lfemur -60.9171 -8.84786 -24.5208
ltibia 58.088
lfoot -13.8399 -22.1834
ltoes -8.7065
249
root 0.899119 16.2194 -18.0286 203.3 151.107 -167.92
lowerback 84.1253 -6.31055 10.0779
upperback 7.69918 2.82649 -3.66543
thorax -10.5358 2.1555 -9.51854
lowerneck 1.17645 -9.37829 -2.19764
upperneck 3.67837 -12.5119 5.97173
head 1.51947 -6.15369 2.08036
rclavicle -3.18055e-014 -3.22031e-014
rhumerus 46.8109 -14.8835 -74.4694
rradius 10.4595
rwrist 42.6085
rhand -29.2457 13.3169
rfingers 7.12502
rthumb -2.58897 -16.6472
lclavicle -3.18055e-014 -3.22031e-014
lhumerus -25.4021 -16.4139 94.9297
lradius 61.0802
lwrist 14.3487
lhand -10.7507 -9.8331
lfingers 7.12502
lthumb 15.2606 19.584
rfemur -56.9131 -10.1864 6.35572
rtibia 68.7762
rfoot -29.2968 -13.614
rtoes -17.0436
lfemur -60.534 -8.89423 -24.176
ltibia 57.7348
lfoot -13.8266 -21.8338
ltoes -8.88601
